<svg width="48" height="48" viewBox="0 0 48 48" fill="none" xmlns="http://www.w3.org/2000/svg">
<path d="M0 16C0 7.16344 7.16344 0 16 0H31.9844C40.8209 0 47.9843 7.16344 47.9843 16V31.9844C47.9843 40.8209 40.8209 47.9843 31.9843 47.9843H16C7.16344 47.9843 0 40.8209 0 31.9843V16Z" fill="#16A34A" fill-opacity="0.1"/>
<path d="M31.976 24.9919C31.976 29.9902 28.4772 32.4894 24.3185 33.9389C24.1008 34.0127 23.8642 34.0092 23.6488 33.9289C19.4801 32.4894 15.9813 29.9902 15.9813 24.9919V17.9941C15.9813 17.729 16.0866 17.4747 16.2741 17.2873C16.4615 17.0998 16.7158 16.9945 16.9809 16.9945C18.9803 16.9945 21.4795 15.7949 23.2189 14.2754C23.4307 14.0944 23.7001 13.995 23.9787 13.995C24.2572 13.995 24.5266 14.0944 24.7384 14.2754C26.4878 15.8049 28.977 16.9945 30.9764 16.9945C31.2415 16.9945 31.4958 17.0998 31.6832 17.2873C31.8707 17.4747 31.976 17.729 31.976 17.9941V24.9919Z" stroke="#16A34A" stroke-width="1.99935" stroke-linecap="round" stroke-linejoin="round"/>
</svg>
