<svg width="48" height="48" viewBox="0 0 48 48" fill="none" xmlns="http://www.w3.org/2000/svg">
<path d="M0 16C0 7.16344 7.16344 0 16 0H31.9844C40.8209 0 47.9843 7.16344 47.9843 16V31.9844C47.9843 40.8209 40.8209 47.9843 31.9843 47.9843H16C7.16344 47.9843 0 40.8209 0 31.9843V16Z" fill="#FFB100" fill-opacity="0.1"/>
<path d="M15.9812 25.9915C15.7921 25.9922 15.6066 25.9391 15.4464 25.8386C15.2861 25.738 15.1577 25.594 15.0761 25.4234C14.9944 25.2527 14.9629 25.0624 14.9851 24.8746C15.0073 24.6867 15.0823 24.509 15.2015 24.3621L25.0983 14.1654C25.1725 14.0797 25.2737 14.0218 25.3851 14.0012C25.4966 13.9806 25.6118 13.9985 25.7118 14.0519C25.8118 14.1054 25.8906 14.1913 25.9353 14.2955C25.9801 14.3996 25.988 14.5159 25.958 14.6253L24.0386 20.6433C23.982 20.7948 23.963 20.9577 23.9832 21.1181C24.0034 21.2786 24.0623 21.4317 24.1547 21.5644C24.2471 21.6971 24.3703 21.8054 24.5137 21.8801C24.6572 21.9547 24.8166 21.9934 24.9783 21.9929H31.976C32.1652 21.9922 32.3507 22.0453 32.5109 22.1458C32.6711 22.2464 32.7995 22.3904 32.8812 22.561C32.9628 22.7317 32.9944 22.922 32.9722 23.1098C32.95 23.2977 32.8749 23.4754 32.7558 23.6223L22.859 33.819C22.7848 33.9047 22.6836 33.9626 22.5721 33.9832C22.4606 34.0038 22.3454 33.9859 22.2455 33.9325C22.1455 33.879 22.0667 33.7931 22.0219 33.6889C21.9772 33.5848 21.9692 33.4685 21.9993 33.3591L23.9186 27.3411C23.9752 27.1896 23.9942 27.0267 23.974 26.8663C23.9538 26.7058 23.895 26.5527 23.8026 26.42C23.7102 26.2873 23.587 26.179 23.4435 26.1044C23.3001 26.0297 23.1407 25.991 22.979 25.9915H15.9812Z" stroke="#FFB100" stroke-width="1.99935" stroke-linecap="round" stroke-linejoin="round"/>
</svg>
