<svg width="48" height="48" viewBox="0 0 48 48" fill="none" xmlns="http://www.w3.org/2000/svg">
<path d="M0 16C0 7.16344 7.16344 0 16 0H31.9844C40.8209 0 47.9843 7.16344 47.9843 16V31.9844C47.9843 40.8209 40.8209 47.9843 31.9843 47.9843H16C7.16344 47.9843 0 40.8209 0 31.9843V16Z" fill="#FFB100" fill-opacity="0.5"/>
<path d="M23.9786 33.9889C29.4997 33.9889 33.9754 29.5132 33.9754 23.9922C33.9754 18.4711 29.4997 13.9954 23.9786 13.9954C18.4576 13.9954 13.9819 18.4711 13.9819 23.9922C13.9819 29.5132 18.4576 33.9889 23.9786 33.9889Z" stroke="#181818" stroke-width="1.99935" stroke-linecap="round" stroke-linejoin="round"/>
<path d="M23.9786 13.9954C21.4117 16.6907 19.9799 20.2701 19.9799 23.9922C19.9799 27.7142 21.4117 31.2936 23.9786 33.9889C26.5455 31.2936 27.9773 27.7142 27.9773 23.9922C27.9773 20.2701 26.5455 16.6907 23.9786 13.9954Z" stroke="#181818" stroke-width="1.99935" stroke-linecap="round" stroke-linejoin="round"/>
<path d="M13.9819 23.9922H33.9754" stroke="#181818" stroke-width="1.99935" stroke-linecap="round" stroke-linejoin="round"/>
</svg>
