<svg width="64" height="64" viewBox="0 0 64 64" fill="none" xmlns="http://www.w3.org/2000/svg">
<path d="M0 16C0 7.16344 7.16344 0 16 0H47.9791C56.8157 0 63.9791 7.16344 63.9791 16V47.9791C63.9791 56.8157 56.8157 63.9791 47.9791 63.9791H16C7.16344 63.9791 0 56.8157 0 47.9791V16Z" fill="#FFB100" fill-opacity="0.1"/>
<path d="M42.6528 33.3225C42.6528 39.987 37.9876 43.3192 32.4428 45.2519C32.1524 45.3503 31.837 45.3456 31.5497 45.2386C25.9916 43.3192 21.3264 39.987 21.3264 33.3225V23.9922C21.3264 23.6387 21.4668 23.2996 21.7168 23.0497C21.9668 22.7997 22.3058 22.6593 22.6593 22.6593C25.3251 22.6593 28.6574 21.0598 30.9766 19.0338C31.259 18.7925 31.6182 18.66 31.9896 18.66C32.361 18.66 32.7202 18.7925 33.0026 19.0338C35.3352 21.0731 38.6541 22.6593 41.3199 22.6593C41.6734 22.6593 42.0124 22.7997 42.2624 23.0497C42.5124 23.2996 42.6528 23.6387 42.6528 23.9922V33.3225Z" stroke="#FFB100" stroke-width="2.6658" stroke-linecap="round" stroke-linejoin="round"/>
</svg>
