<svg width="18" height="22" viewBox="0 0 18 22" fill="none" xmlns="http://www.w3.org/2000/svg">
<path d="M16.9945 11.9965C16.9945 16.9949 13.4956 19.4941 9.33698 20.9436C9.11921 21.0174 8.88266 21.0139 8.66719 20.9336C4.49855 19.4941 0.999695 16.9949 0.999695 11.9965V4.99881C0.999695 4.73368 1.10502 4.47941 1.29249 4.29193C1.47997 4.10446 1.73424 3.99914 1.99937 3.99914C3.99872 3.99914 6.4979 2.79953 8.23733 1.28002C8.44912 1.09908 8.71853 0.999664 8.99709 0.999664C9.27564 0.999664 9.54505 1.09908 9.75684 1.28002C11.5063 2.80952 13.9955 3.99914 15.9948 3.99914C16.2599 3.99914 16.5142 4.10446 16.7017 4.29193C16.8892 4.47941 16.9945 4.73368 16.9945 4.99881V11.9965Z" stroke="#16A34A" stroke-width="1.99935" stroke-linecap="round" stroke-linejoin="round"/>
</svg>
