<svg width="80" height="80" viewBox="0 0 80 80" fill="none" xmlns="http://www.w3.org/2000/svg">
<path d="M0 16C0 7.16345 7.16344 0 16 0H63.9739C72.8105 0 79.9739 7.16344 79.9739 16V63.9739C79.9739 72.8105 72.8105 79.9739 63.9739 79.9739H16C7.16345 79.9739 0 72.8105 0 63.9739V16Z" fill="#FFB100"/>
<path d="M51.6363 31.6428V26.6444C51.6363 26.2025 51.4607 25.7787 51.1483 25.4663C50.8358 25.1538 50.412 24.9783 49.9701 24.9783H28.3105C27.4268 24.9783 26.5792 25.3294 25.9543 25.9543C25.3294 26.5792 24.9783 27.4268 24.9783 28.3105C24.9783 29.1943 25.3294 30.0419 25.9543 30.6668C26.5792 31.2917 27.4268 31.6428 28.3105 31.6428H53.3024C53.7443 31.6428 54.1681 31.8183 54.4805 32.1308C54.793 32.4432 54.9685 32.867 54.9685 33.3089V39.9734M54.9685 39.9734H49.9701C49.0864 39.9734 48.2388 40.3245 47.6139 40.9494C46.989 41.5743 46.6379 42.4219 46.6379 43.3056C46.6379 44.1894 46.989 45.037 47.6139 45.6619C48.2388 46.2868 49.0864 46.6379 49.9701 46.6379H54.9685C55.4104 46.6379 55.8342 46.4623 56.1466 46.1499C56.4591 45.8374 56.6346 45.4136 56.6346 44.9718V41.6395C56.6346 41.1976 56.4591 40.7739 56.1466 40.4614C55.8342 40.1489 55.4104 39.9734 54.9685 39.9734Z" stroke="#181818" stroke-width="3.33225" stroke-linecap="round" stroke-linejoin="round"/>
<path d="M24.9783 28.3105V51.6363C24.9783 52.52 25.3294 53.3676 25.9543 53.9925C26.5792 54.6174 27.4268 54.9685 28.3105 54.9685H53.3024C53.7443 54.9685 54.1681 54.793 54.4805 54.4805C54.793 54.1681 54.9685 53.7443 54.9685 53.3024V46.6379" stroke="#181818" stroke-width="3.33225" stroke-linecap="round" stroke-linejoin="round"/>
</svg>
